# xmcd
#
# Track frame offsets: 
#        150
#        21382
#        46106
#        61088
#        77441
#        97750
#        121867
#        139475
#
# Disc length: 2117 seconds
#
# Revision: 0
# Processed by: cddbd v1.5.2PL0 Copyright (c) Steve Scherf et al.
# Submitted via: ExactAudioCopy v0.99pb5
#
DISCID=5a084308
DTITLE=Memphis La Blusera - Alma Bajo La Lluvia
DYEAR=1983
DGENRE=Blues
TTITLE0=Moscato, pizza y faina
TTITLE1=Alma Bajo La Lluvia
TTITLE2=Boogie Mama
TTITLE3=El blues De Las 6 Y 30
TTITLE4=El Trepador
TTITLE5=Lo Mismo Boogie
TTITLE6=El Estibador
TTITLE7=En Todas Las Ciudades
EXTD=
EXTT0=
EXTT1=
EXTT2=
EXTT3=
EXTT4=
EXTT5=
EXTT6=
EXTT7=
PLAYORDER=
